<svg viewBox="0 0 378 376" fill="none">
    <path d="M92.287 10.17c-1.887 15.726-7.444 34.913-10.17 34.913-.734 0-5.766-2.097-11.113-4.613-8.597-3.984-21.703-7.968-26.526-7.968-1.258 0-.629 1.887 2.412 8.073 4.613 9.33 8.807 23.904 8.282 28.936l-.314 3.355-9.436.734c-27.47 2.097-40.365 3.355-40.365 3.88 0 .419 4.613 5.347 10.275 11.113 10.589 10.694 18.347 22.122 17.823 26.106-.21 1.468-5.556 5.871-16.565 13.525C7.678 134.41.234 139.966.025 140.491c-.21.524.943 1.258 2.62 1.677 11.219 2.412 16.042 3.984 20.026 6.291 5.452 3.25 11.113 8.073 13.944 12.057l2.097 2.935-11.743 11.638c-9.855 9.855-11.532 11.848-10.274 13.001.838.734 7.13 3.145 14.049 5.242 6.92 2.097 13 4.299 13.525 4.823.524.524-.315 5.871-2.307 13.21-1.782 6.815-2.936 12.791-2.621 13.315.524.944 17.823.105 20.654-.943 2.621-.944 3.67 1.572 4.404 9.855.42 4.823 1.048 8.912 1.468 9.121.838.525 12.58-4.508 12.58-5.347 0-.314-1.362-2.516-3.04-4.927-4.822-7.025-8.073-14.259-11.113-24.324-1.468-5.242-3.67-12.267-4.718-15.727-1.153-3.459-2.307-8.177-2.516-10.484-1.468-11.113-1.678-15.202-.63-15.202.525 0 1.049 1.782 1.049 3.879.105 4.718 2.411 17.299 3.984 21.807.63 1.678 2.621 7.864 4.404 13.63 4.298 13.525 10.484 25.687 15.83 31.034 2.517 2.516 7.969 6.081 13.211 8.492l8.807 4.089-.314 3.879-.315 3.88-23.38 7.758-23.38 7.863-3.04 9.96c-1.678 5.557-6.396 22.018-10.59 36.696-4.194 14.573-8.178 27.154-8.807 27.783-.629.629-2.516 6.291-4.089 12.686-1.572 6.291-3.04 12.372-3.355 13.316-.524 1.782 3.67 1.887 78.109 1.887 74.544 0 78.738-.105 78.738-1.887 0-.944-4.928-6.396-11.009-12.057-6.081-5.662-11.009-10.904-11.009-11.743 0-.734 3.775-4.613 8.283-8.597 11.533-9.855 11.638-10.484 6.92-22.542-7.968-20.234-25.058-51.478-31.349-57.349-1.992-1.887-2.726-3.67-2.726-6.5 0-4.299.944-5.347 6.291-7.13 5.452-1.782 10.799-5.871 14.469-11.008 2.935-4.089 4.193-4.823 12.266-7.339 4.928-1.573 8.912-3.251 8.912-3.67 0-.524-1.887-3.25-4.194-5.976-4.508-5.452-5.347-9.331-2.306-10.275.943-.314 4.613-.839 8.073-1.258 3.459-.314 6.605-.839 7.024-1.153.944-.42-4.403-15.307-5.661-15.832-.42-.209-.839-1.153-.839-2.201 0-1.258 1.468-2.202 5.242-3.146 6.5-1.677 22.017-9.121 22.017-10.484 0-.629-1.992-2.097-4.403-3.355-13.42-6.815-24.324-14.678-22.122-15.936.419-.21 4.298-1.468 8.492-2.726 4.194-1.258 11.009-3.879 15.202-5.767 7.235-3.25 22.123-12.057 21.493-12.686-.419-.314-28.832-12.476-31.558-13.42-1.258-.524-1.572-1.153-1.048-2.097.419-.838 7.339-7.548 15.307-14.887 7.864-7.444 14.364-13.84 14.364-14.26 0-.838-6.501-1.991-25.687-4.717-6.92-1.049-13.001-2.097-13.42-2.516-.524-.42 4.299-9.646 10.694-20.445 10.38-17.718 12.372-21.493 11.323-21.493-.209 0-8.807 3.04-19.081 6.815-14.993 5.452-19.082 6.5-20.13 5.452-2.307-2.307-4.509-19.606-4.509-35.123V3.04l-8.492 4.509c-9.96 5.347-23.275 15.726-29.461 22.96-2.307 2.831-4.718 5.138-5.137 5.138-.525 0-4.509-4.823-9.017-10.799C108.748 14.573 95.642 0 94.174 0c-.42 0-1.258 4.613-1.887 10.17zm2.936 262.738c-3.88 3.041-23.695 55.358-22.122 58.084.524.943 5.032 5.242 10.065 9.646 5.137 4.403 9.436 8.492 9.645 9.121.21.629-1.048 2.936-2.83 5.137-1.678 2.202-3.146 3.355-3.146 2.621 0-.629.944-2.516 2.202-3.984l2.202-2.83-10.065-9.436c-7.025-6.606-10.065-10.17-10.065-11.848 0-3.355 11.952-35.437 19.29-51.897 1.783-3.985 3.251-5.977 4.51-5.977 1.677.105 1.677.21.314 1.363z"/>
    <path d="M270.733 147.306c-29.461 5.347-45.712 16.984-66.785 48.123-4.613 6.71-4.928 7.549-4.928 14.049 0 5.032-1.048 9.96-3.774 18.452-4.613 14.364-4.404 17.719 2.201 28.937 2.621 4.404 4.718 8.598 4.718 9.122 0 .629-1.363 2.621-3.145 4.508-5.557 5.976-5.452 15.202.315 21.388 3.355 3.46 11.218 6.71 13.315 5.347.524-.314-.21-2.726-1.573-5.452-1.468-2.621-2.621-5.556-2.516-6.5 0-1.048.524-.734 1.153.944 1.782 3.879 10.065 16.67 14.154 21.702 8.073 10.065 25.477 20.235 41.728 24.534 4.928 1.258 13.63 2.411 20.969 2.726 6.919.314 11.637.943 10.484 1.363-6.291 2.201-35.228-1.888-48.543-6.92l-6.919-2.621-1.783 2.411c-6.605 8.702-14.154 28.518-16.041 41.938l-.524 3.984h65.003c61.439 0 65.003-.105 64.479-1.887-.314-.944-1.992-7.235-3.669-13.945-3.67-14.468-6.606-21.702-11.324-27.888-1.887-2.516-3.459-5.137-3.459-5.871.104-.629 2.725-3.146 5.976-5.452 5.871-4.194 13.944-12.686 18.347-19.396 1.468-2.202 3.775-3.984 5.872-4.613 1.782-.525 5.137-2.726 7.443-4.823 7.235-6.92 7.969-16.356 1.573-21.913-2.202-1.887-2.516-2.83-1.887-6.185.419-2.097 1.048-4.089 1.468-4.404.419-.314 1.363-3.355 2.097-6.815 1.048-5.032 1.048-8.911 0-19.71-.734-7.339-1.783-13.315-2.307-13.315s-.839-2.936-.734-6.606c.21-5.766-.314-7.548-4.089-14.887-5.032-9.961-12.476-20.864-20.025-29.042-4.613-5.033-7.654-7.025-19.501-12.896-8.387-4.089-16.985-7.549-21.178-8.387-8.702-1.888-26.526-1.888-36.591 0zM147.646 261.69c0 .315 1.992 3.25 4.508 6.5 2.516 3.251 5.976 8.388 7.863 11.219 4.928 7.863 16.356 32.396 19.711 42.147 3.669 10.379 3.355 11.113-7.654 20.444-4.194 3.565-7.653 7.34-7.653 8.178 0 .944 4.717 5.976 10.484 11.428 6.291 5.767 10.484 10.485 10.484 11.743 0 1.887.839 1.992 14.678 1.992 11.009 0 14.679-.315 14.679-1.363 0-4.404-25.687-96.771-28.099-101.174-.419-.839-7.129-3.041-14.887-5.033-7.759-1.887-15.832-4.194-18.034-5.137-4.298-1.678-6.08-1.992-6.08-.944z"/>
</svg>
